<svg width="379" height="133" viewBox="0 0 379 133" fill="none" xmlns="http://www.w3.org/2000/svg">
<g clip-path="url(#clip0_5_2)">
<path fill-rule="evenodd" clip-rule="evenodd" d="M177.596 37.5616C178.999 31.6397 181.412 26.2049 183.348 20.5872C184.128 18.3257 185.432 14.6189 186.433 12.4934C188.981 7.08717 192.369 11.5585 192.959 7.67517C189.547 7.46583 186.001 7.73503 182.545 7.6517C175.315 7.4773 168.156 6.60024 165.151 10.5893C163.153 13.2408 161.272 16.7601 162.627 17.1897C165.256 18.0241 164.563 12.0997 170.991 10.7382C187.555 7.22984 158.767 66.1481 156.295 67.9481C151.177 71.6741 149.641 67.923 149.151 71.8798C152.353 72.5205 158.531 71.9856 161.891 72.008C163.392 72.0184 164.885 72.0022 166.385 71.9716C173.868 71.8178 172.689 72.5981 172.747 70.6044C172.761 70.1028 170.923 70.2517 169.947 70.0694C168.801 69.8549 167.925 68.9054 167.775 67.7502C167.267 63.8653 170.66 57.335 171.745 54.0976C172.719 51.1965 175.823 40.9836 177.171 39.535C184.855 45.0506 188.227 88.2554 213.956 88.2934C223.008 88.3069 228.084 82.9132 227.909 79.3814C227.783 76.834 223.931 76.7949 223.541 79.3158C223.279 81.0142 223.36 82.8336 220.74 84.0664C217.845 85.4278 213.653 84.7132 210.965 83.1705C206.071 80.3626 202.797 74.9528 200.297 69.8044C196.127 61.2189 193.041 53.3924 189.393 44.7064C188.125 41.6872 186.409 39.4449 185.175 36.8184C187.789 36.1282 195.919 29.823 198.795 27.6934C198.795 27.6934 213.163 15.2481 216.227 13.2549C218.999 11.4517 220.76 11.5121 223.891 11.9189C230.661 12.7981 232.695 3.2153 219.031 7.43717C214.641 8.79344 215.092 8.6465 210.783 9.09397C206.807 9.5069 210.007 10.9429 211.443 11.7965C210.057 14.7574 199.184 23.323 195.651 26.2236C191.191 29.8845 183.605 36.92 177.596 37.5616Z" fill="#F3C35F"/>
<path fill-rule="evenodd" clip-rule="evenodd" d="M59.4615 35.2278C59.6333 31.5934 67.2063 15.5226 70.0677 10.0252C70.3557 9.4721 70.9724 9.1809 71.5839 9.30436C78.7984 10.7606 89.3636 12.5976 95.1719 7.94543C97.1396 6.36996 95.3917 3.2621 92.9751 3.9773C91.4651 4.42357 89.426 4.8497 86.614 5.15957C69.7417 6.51317 36.2735 -2.73071 23.5547 18.258C15.2823 31.9106 23.5812 39.9288 28.9177 38.7221C31.1251 38.2226 31.324 35.0893 29.2579 34.1653C26.6953 33.0194 23.9844 30.8564 25.4781 24.7861C29.386 8.90689 47.4688 7.28144 61.1917 8.5653C62.2459 8.6637 62.8303 9.81729 62.2917 10.7288C60.4787 13.7986 56.8511 18.6366 55.4448 21.2017C54.3109 23.2705 50.9568 30.7949 49.9521 34.1637C49.7584 34.8121 49.1593 35.2554 48.4828 35.2246C43.9588 35.0194 40.4145 35.3205 37.9011 39.4684C36.7396 41.3845 38.3989 42.7502 39.2473 41.4877C40.4068 39.7621 39.9901 38.0986 46.4021 38.1746C47.3869 38.1861 48.0755 39.1741 47.7448 40.1022C46.3068 44.132 42.6131 51.9648 41.3797 54.2986C36.0307 64.423 27.4068 74.297 14.7407 73.0694C10.3802 72.647 5.62604 69.7085 5.20886 65.0408C5.075 63.5366 5.03074 62.859 5.13438 62.209C5.31251 61.0976 4.21146 60.208 3.1599 60.6096C-2.82396 62.894 -0.0713521 73.2626 9.40364 75.9538C24.9079 80.3574 39.6453 70.8893 48.388 58.4497C50.7323 55.1148 56.2453 44.5221 57.5265 39.6434C57.6964 38.996 58.2724 38.5492 58.9407 38.5788C62.0708 38.7194 67.3317 38.9221 70.5489 38.6445C71.6339 38.5512 72.5604 37.8268 72.9541 36.8116C73.5281 35.3309 72.264 33.7882 70.6984 34.0554C67.0588 34.6768 64.5864 35.2377 59.4615 35.2278Z" fill="#F3C35F"/>
<path fill-rule="evenodd" clip-rule="evenodd" d="M252.895 70.283C257.593 66.8178 259.667 64.6944 259.667 64.6944C259.048 63.8068 259.312 64.2287 258.2 62.7948C255.927 63.885 252.903 68.598 249.583 68.2902C249.056 68.2412 248.587 67.86 248.491 67.3402C247.504 61.971 257.328 43.4595 257.728 37.5246C258.269 29.4866 250.899 30.609 245.925 33.5194C236.844 38.8335 233.817 46.2975 229.829 49.0282C230.505 44.4538 233.143 37.9278 234.565 33.3022C236.452 27.1672 241.412 8.8611 247.469 6.48657C252.415 4.54857 258.02 9.71577 261.193 6.24697C262.133 5.2183 262.551 3.72296 261.919 2.48083C260.328 -0.642636 254.117 0.724568 251.189 1.53657C247.463 2.57044 244.209 4.4647 241.2 6.83924C235.683 11.1912 231.549 18.4532 229.243 25.4658C224.681 39.333 217.563 58.2882 214.489 72.0063L222.428 71.9626C225.38 65.8939 225.832 58.8658 231.879 50.5158C234.543 46.8366 243.253 34.7568 248.611 37.61C249.66 39.9256 247.257 44.9584 246.316 47.5522C244.643 52.1584 241.285 61.262 240.452 65.6491C238.579 75.5054 247.103 74.2407 252.895 70.283Z" fill="#F3C35F"/>
<path fill-rule="evenodd" clip-rule="evenodd" d="M323.148 69.8383C328.521 66.1992 328.831 63.9465 332.897 59.8497L330.969 67.5356C329.853 76.3544 338.583 73.6949 343.216 70.4721C345.86 68.6325 348.249 66.3888 350.239 63.9023C350.005 62.908 349.715 62.7695 348.74 62.3263C346.503 64.5684 342.979 68.8575 339.395 67.9643C338.172 65.9096 340.66 59.8673 341.377 57.4929L350.813 27.232C352.357 22.6861 355.907 11.5184 358.953 8.42986C365.251 2.04653 378.372 11.8861 377.403 3.69293C377.368 3.406 377.241 3.03506 377.089 2.77986C372.649 -4.652 357.855 4.67627 353.372 9.46267C343.599 19.8997 345.433 23.6893 341.208 31.994C322.021 30.3112 306.68 52.8127 306.623 64.4107C306.565 75.8945 315.259 75.182 323.148 69.8383ZM320.817 45.5893C325.756 37.3116 340.191 31.3351 339.044 39.5883C338.651 42.0632 335.784 50.7096 331.633 56.8023C329.563 59.8413 328.749 61.2293 326.208 63.8007C313.281 76.8768 313.696 57.5252 320.817 45.5893Z" fill="#F3C35F"/>
<path fill-rule="evenodd" clip-rule="evenodd" d="M102.373 67.2819C100.836 62.9893 109.085 44.2178 112.679 34.5601C113.485 32.3923 111.414 30.2533 109.225 31.0006C108.643 31.1991 108.023 31.5319 107.236 32.1079C106.975 32.2986 106.634 32.3721 106.32 32.2949C101.952 31.2235 99.212 30.8663 94.3479 32.8273C68.376 43.297 62.0183 78.2314 79.8167 72.8339C86.2547 71.2981 90.1505 66.823 93.0729 63.0574C93.7849 62.1407 95.236 62.8825 94.9167 63.9986C93.4833 69.0095 92.5131 74.6397 99.8984 73.0767C103.835 72.2434 110.033 67.3095 112.843 64.1287C113.196 63.7293 113.196 63.1355 112.846 62.733C112.475 62.3063 111.839 62.2439 111.392 62.5902C108.749 64.6393 106.022 68.5059 102.373 67.2819ZM84.6912 66.5371C80.6771 68.2803 78.2683 66.0757 77.6807 64.2106C75.6297 57.7011 83.3511 42.7981 90.5396 38.1169C93.8303 35.9741 96.8552 35.009 99.1891 35.5563C102.537 36.3418 102.783 39.3459 102.03 41.7855C99.7812 49.0721 93.6453 63.2746 84.6912 66.5371Z" fill="#F3C35F"/>
<path fill-rule="evenodd" clip-rule="evenodd" d="M118.575 72.1876L126.504 72.0975C129.88 61.7683 131.813 54.3324 138.276 45.3574C140.196 42.6923 145.008 36.633 149.008 37.1532C152.348 37.5876 151.745 40.0923 155.632 37.4756C157.649 36.1183 159.04 31.9678 155.851 30.9188C145.956 28.2434 138.888 40.7022 134.265 47.5944C133.317 46.0188 135.917 40.1454 136.425 38.1319C140.168 23.2844 122.848 34.3726 118.281 40.4615L120.13 41.8278C122.377 40.1402 126.413 34.8844 129.002 36.9183C131.403 39.0158 120.105 66.0778 118.201 71.8991L118.575 72.1876Z" fill="#F3C35F"/>
<path fill-rule="evenodd" clip-rule="evenodd" d="M362.28 73.41C368.412 72.3434 374.761 64.5787 375.631 64.4226C374.176 60.4574 372.829 64.412 370.824 65.8454C361.688 72.3808 363.428 65.4568 366.192 58.7902C369.201 51.5355 383.433 21.6464 362.868 33.8839C360.793 35.1188 360.052 35.6866 358.277 37.1371L354.097 40.9412L356.145 42.1063C358.36 40.8183 359.787 37.6595 362.548 37.1574C363.756 36.9382 364.924 37.9032 364.988 39.1298C365.121 41.685 363.347 44.9704 362.529 47.1522C358.845 56.9902 348.957 75.4215 362.28 73.41Z" fill="#F3C35F"/>
<path fill-rule="evenodd" clip-rule="evenodd" d="M375.023 24.2033C383.828 20.9773 375.924 11.0726 370.772 16.946C368.536 20.3049 370.392 24.7549 375.023 24.2033Z" fill="#F3C35F"/>
<path d="M50.8885 102.813H64.9614V105.178H53.4377V111.038H64.0942V113.272H53.4377V119.816H65.1585V122.115H50.8885V102.813ZM78.4955 114.205L75.5653 105.677L72.4511 114.205H78.4955ZM74.1987 102.813H77.1552L84.1588 122.115H81.2943L79.3364 116.334H71.7022L69.6129 122.115H66.9324L74.1987 102.813ZM89.3753 102.813V114.744C89.3753 116.145 89.6381 117.31 90.1637 118.239C90.9434 119.64 92.2574 120.341 94.1057 120.341C96.322 120.341 97.8287 119.583 98.6258 118.068C99.0551 117.245 99.2697 116.136 99.2697 114.744V102.813H101.924V113.653C101.924 116.027 101.604 117.853 100.965 119.132C99.7909 121.462 97.5746 122.628 94.3159 122.628C91.0572 122.628 88.8454 121.462 87.6803 119.132C87.0408 117.853 86.7211 116.027 86.7211 113.653V102.813H89.3753ZM120.885 119.881C121.77 119.881 122.497 119.789 123.066 119.605C124.082 119.264 124.914 118.607 125.563 117.634C126.079 116.855 126.452 115.856 126.68 114.639C126.811 113.911 126.877 113.237 126.877 112.615C126.877 110.223 126.399 108.366 125.444 107.044C124.498 105.721 122.97 105.06 120.859 105.06H116.22V119.881H120.885ZM113.592 102.813H121.41C124.065 102.813 126.123 103.754 127.586 105.638C128.891 107.337 129.544 109.514 129.544 112.168C129.544 114.218 129.159 116.071 128.388 117.726C127.03 120.652 124.695 122.115 121.384 122.115H113.592V102.813ZM133.171 102.813H147.243V105.178H135.72V111.038H146.376V113.272H135.72V119.816H147.441V122.115H133.171V102.813ZM158.61 102.813H167.295C169.012 102.813 170.396 103.299 171.447 104.271C172.498 105.235 173.024 106.593 173.024 108.344C173.024 109.851 172.555 111.165 171.618 112.286C170.681 113.399 169.24 113.955 167.295 113.955H161.224V122.115H158.61V102.813ZM170.383 108.358C170.383 106.939 169.857 105.975 168.806 105.467C168.228 105.195 167.435 105.06 166.428 105.06H161.224V111.748H166.428C167.602 111.748 168.552 111.498 169.279 110.999C170.015 110.499 170.383 109.619 170.383 108.358ZM184.245 114.205L181.315 105.677L178.201 114.205H184.245ZM179.949 102.813H182.905L189.909 122.115H187.044L185.086 116.334H177.452L175.363 122.115H172.682L179.949 102.813ZM201.262 111.656C202.488 111.656 203.456 111.41 204.166 110.92C204.884 110.429 205.243 109.545 205.243 108.266C205.243 106.89 204.744 105.953 203.745 105.454C203.211 105.191 202.497 105.06 201.603 105.06H195.217V111.656H201.262ZM192.602 102.813H201.538C203.009 102.813 204.223 103.027 205.177 103.456C206.991 104.28 207.897 105.8 207.897 108.016C207.897 109.172 207.656 110.118 207.175 110.854C206.702 111.59 206.036 112.181 205.177 112.628C205.931 112.935 206.496 113.338 206.872 113.837C207.258 114.336 207.472 115.147 207.516 116.268L207.608 118.856C207.635 119.592 207.696 120.14 207.792 120.499C207.95 121.112 208.23 121.506 208.633 121.681V122.115H205.427C205.339 121.949 205.269 121.734 205.217 121.471C205.164 121.208 205.12 120.7 205.085 119.947L204.928 116.728C204.866 115.466 204.398 114.621 203.522 114.192C203.022 113.955 202.238 113.837 201.17 113.837H195.217V122.115H192.602V102.813ZM211.984 102.813H225.373V105.178H214.599V111.038H224.073V113.338H214.599V122.115H211.984V102.813ZM231.024 102.813V114.744C231.024 116.145 231.286 117.31 231.812 118.239C232.592 119.64 233.906 120.341 235.754 120.341C237.97 120.341 239.477 119.583 240.274 118.068C240.703 117.245 240.918 116.136 240.918 114.744V102.813H243.572V113.653C243.572 116.027 243.252 117.853 242.613 119.132C241.439 121.462 239.223 122.628 235.964 122.628C232.705 122.628 230.494 121.462 229.328 119.132C228.689 117.853 228.369 116.027 228.369 113.653V102.813H231.024ZM247.567 102.813H251.312L256.857 119.132L262.362 102.813H266.068V122.115H263.584V110.723C263.584 110.329 263.593 109.676 263.611 108.765C263.628 107.854 263.637 106.877 263.637 105.835L258.131 122.115H255.543L249.998 105.835V106.426C249.998 106.899 250.006 107.622 250.024 108.594C250.05 109.558 250.063 110.267 250.063 110.723V122.115H247.567V102.813Z" fill="#F3C35F"/>
<path fill-rule="evenodd" clip-rule="evenodd" d="M293.808 67.2819C292.271 62.9893 300.52 44.2178 304.113 34.5601C304.92 32.3923 302.848 30.2533 300.659 31.0006C300.077 31.1991 299.457 31.5319 298.671 32.1079C298.411 32.2986 298.068 32.3721 297.755 32.2949C293.387 31.2235 290.647 30.8663 285.783 32.8273C259.811 43.297 253.453 78.2314 271.252 72.8339C277.689 71.2981 281.585 66.823 284.508 63.0574C285.22 62.1407 286.671 62.8825 286.352 63.9986C284.919 69.0095 283.948 74.6397 291.333 73.0767C295.271 72.2434 301.468 67.3095 304.279 64.1287C304.632 63.7293 304.631 63.1355 304.281 62.733C303.911 62.3063 303.273 62.2439 302.827 62.5902C300.184 64.6393 297.457 68.5059 293.808 67.2819ZM276.125 66.5371C272.112 68.2803 269.703 66.0757 269.116 64.2106C267.064 57.7011 274.785 42.7981 281.975 38.1169C285.265 35.9741 288.291 35.009 290.624 35.5563C293.972 36.3418 294.217 39.3459 293.465 41.7855C291.216 49.0721 285.08 63.2746 276.125 66.5371Z" fill="#F3C35F"/>
</g>
<defs>
<clipPath id="clip0_5_2">
<rect width="378.987" height="132.12" fill="white"/>
</clipPath>
</defs>
</svg>
